# xmcd
#
# Track frame offsets:
#	150
#	15080
#	35582
#	53525
#	76862
#	108990
#	135635
#	168132
#	201187
#	213490
#	217847
#
# Disc length: 3533 seconds
#
# Revision: 0
# Processed by: cddbd v1.5.1PL2 Copyright (c) Steve Scherf et al.
# Submitted via: dBpowerAMP V4.0
#
DISCID=820dcb0b
DTITLE=Jimbo Mathus and Friends - Live at Ground Zero Blues Club
DYEAR=1900
DGENRE=Blues
TTITLE0=Mystery Train
TTITLE1=Boogie Music
TTITLE2=Be Your Rocker
TTITLE3=Meet Me in the Bottom featuring Wesley Jefferson
TTITLE4=Chain of Fools
TTITLE5=Mojo Workin' featuring George Brock
TTITLE6=Hypnotized
TTITLE7=Bean's Blues featuring Big George Brock
TTITLE8=Auld Lang Syne
TTITLE9=Morgan's Happy New Year featuring Morgan Freeman
TTITLE10=Stateline Women
EXTD=I got this at www.cdbaby.com
EXTT0=
EXTT1=
EXTT2=
EXTT3=
EXTT4=
EXTT5=
EXTT6=
EXTT7=
EXTT8=
EXTT9=
EXTT10=
PLAYORDER=
